<svg xmlns="http://www.w3.org/2000/svg" width="132.41" height="35" viewBox="0 0 132.41 35"><rect class="svg__rect" x="0" y="0" width="44.94" height="35" fill="#000000"/><rect class="svg__rect" x="42.94" y="0" width="89.47" height="35" fill="#00D4C9"/><path class="svg__text" d="M17.33 22L14.22 22L14.22 13.47L17.14 13.47Q18.59 13.47 19.34 14.05Q20.10 14.63 20.10 15.78L20.10 15.78Q20.10 16.36 19.78 16.83Q19.47 17.30 18.86 17.56L18.86 17.56Q19.55 17.75 19.93 18.26Q20.31 18.78 20.31 19.51L20.31 19.51Q20.31 20.71 19.53 21.36Q18.76 22 17.33 22L17.33 22ZM15.70 18.15L15.70 20.82L17.35 20.82Q18.04 20.82 18.44 20.47Q18.83 20.13 18.83 19.51L18.83 19.51Q18.83 18.18 17.47 18.15L17.47 18.15L15.70 18.15ZM15.70 14.66L15.70 17.06L17.15 17.06Q17.84 17.06 18.23 16.75Q18.62 16.43 18.62 15.86L18.62 15.86Q18.62 15.23 18.26 14.95Q17.90 14.66 17.14 14.66L17.14 14.66L15.70 14.66ZM26.81 18.86L23.95 13.47L25.60 13.47L27.56 17.51L29.52 13.47L31.16 13.47L28.30 18.86L28.30 22L26.81 22L26.81 18.86Z" fill="#FFFFFF"/><path class="svg__text" d="M58.55 22L56.12 22L59.83 13.60L62.17 13.60L65.89 22L63.42 22L62.76 20.37L59.21 20.37L58.55 22ZM60.98 15.93L59.90 18.61L62.06 18.61L60.98 15.93ZM76.43 22L70.04 22L70.04 13.60L72.42 13.60L72.42 20.11L76.43 20.11L76.43 22ZM85.39 22L80.85 22L80.85 13.60L85.15 13.60Q86.75 13.60 87.59 14.19Q88.43 14.79 88.43 15.79L88.43 15.79Q88.43 16.39 88.14 16.87Q87.84 17.34 87.30 17.62L87.30 17.62Q88.02 17.87 88.43 18.41Q88.84 18.94 88.84 19.70L88.84 19.70Q88.84 20.80 87.95 21.40Q87.06 22 85.39 22L85.39 22ZM83.20 18.58L83.20 20.28L85.19 20.28Q86.44 20.28 86.44 19.43L86.44 19.43Q86.44 18.58 85.19 18.58L85.19 18.58L83.20 18.58ZM83.20 15.31L83.20 16.94L84.83 16.94Q86.03 16.94 86.03 16.12L86.03 16.12Q86.03 15.31 84.83 15.31L84.83 15.31L83.20 15.31ZM92.67 21.34L92.67 21.34L93.53 19.55Q94.02 19.88 94.64 20.07Q95.26 20.25 95.86 20.25L95.86 20.25Q96.47 20.25 96.83 20.02Q97.19 19.79 97.19 19.37L97.19 19.37Q97.19 18.55 95.91 18.55L95.91 18.55L94.91 18.55L94.91 17.05L96.41 15.44L93.10 15.44L93.10 13.60L99.17 13.60L99.17 15.09L97.43 16.96Q98.48 17.18 99.04 17.82Q99.60 18.46 99.60 19.37L99.60 19.37Q99.60 20.11 99.19 20.75Q98.79 21.39 97.97 21.78Q97.15 22.17 95.93 22.17L95.93 22.17Q95.04 22.17 94.17 21.95Q93.30 21.74 92.67 21.34ZM105.07 15.44L103.50 15.44L103.50 13.60L107.44 13.60L107.44 22L105.07 22L105.07 15.44ZM112.19 17.80L112.19 17.80Q112.19 16.45 112.66 15.46Q113.13 14.46 113.97 13.95Q114.81 13.43 115.89 13.43L115.89 13.43Q116.96 13.43 117.80 13.95Q118.64 14.46 119.11 15.46Q119.59 16.45 119.59 17.80L119.59 17.80Q119.59 19.15 119.11 20.15Q118.64 21.14 117.80 21.65Q116.96 22.17 115.89 22.17L115.89 22.17Q114.81 22.17 113.97 21.65Q113.13 21.14 112.66 20.15Q112.19 19.16 112.19 17.80ZM114.57 17.80L114.57 17.80Q114.57 19.06 114.93 19.64Q115.28 20.22 115.89 20.22L115.89 20.22Q116.50 20.22 116.85 19.64Q117.20 19.06 117.20 17.80L117.20 17.80Q117.20 16.54 116.85 15.96Q116.50 15.38 115.89 15.38L115.89 15.38Q115.28 15.38 114.93 15.96Q114.57 16.54 114.57 17.80Z" fill="#FFFFFF" x="55.94"/></svg>